# xmcd CD database file
#
# Track frame offsets:
#	150
#	25467
#	44642
#	71822
#	93010
#	129437
#	144872
#	165115
#	184837
#	206509
#	229895
#	252690
#	273312
#
# Disc length: 4128 seconds
#
# Revision: 1
# Processed by: cddbd v1.5.2PL0 Copyright (c) Steve Scherf et al.
# Submitted via: CDex 1.81
#
DISCID=b7101e0d
DTITLE=European Jazz Trio - Best Selection Box [Disc2] Leaf
DYEAR=2004
DGENRE=Jazz
TTITLE0=The Jewels Of The Madonna
TTITLE1=Mazurka No.1
TTITLE2=Golden Earrings
TTITLE3=Fragile
TTITLE4=Europa
TTITLE5=13 Jours En France
TTITLE6=Adagio
TTITLE7=Kiss Of Fire
TTITLE8=DJango
TTITLE9=The Windmills Of Your Mind
TTITLE10=Fur Elise
TTITLE11=Libertango
TTITLE12=Moonlight
EXTD=YEAR: 2004
EXTT0=
EXTT1=
EXTT2=
EXTT3=
EXTT4=
EXTT5=
EXTT6=
EXTT7=
EXTT8=
EXTT9=
EXTT10=
EXTT11=
EXTT12=
PLAYORDER=
